<svg width="693" height="745" viewBox="0 0 693 745" fill="none" xmlns="http://www.w3.org/2000/svg">
<path d="M678 405.5C678 592.725 339 744.5 339 744.5C339 744.5 0 592.725 0 405.5C0 218.275 151.775 71 339 71C526.225 71 678 218.275 678 405.5Z" fill="black"/>
<ellipse cx="346.5" cy="182.5" rx="346.5" ry="111.5" fill="black"/>
<rect x="319" width="40" height="99" fill="black"/>
<path d="M301.572 422.372C302.164 422.372 302.68 422.3 303.12 422.156C303.56 422.004 303.924 421.792 304.212 421.52C304.508 421.24 304.728 420.904 304.872 420.512C305.016 420.112 305.088 419.668 305.088 419.18C305.088 418.716 305.016 418.296 304.872 417.92C304.728 417.544 304.512 417.224 304.224 416.96C303.936 416.696 303.572 416.496 303.132 416.36C302.692 416.216 302.172 416.144 301.572 416.144H299.16V422.372H301.572ZM301.572 413.648C302.732 413.648 303.736 413.784 304.584 414.056C305.432 414.328 306.132 414.708 306.684 415.196C307.236 415.684 307.644 416.268 307.908 416.948C308.18 417.628 308.316 418.372 308.316 419.18C308.316 420.02 308.176 420.792 307.896 421.496C307.616 422.192 307.196 422.792 306.636 423.296C306.076 423.8 305.372 424.192 304.524 424.472C303.684 424.752 302.7 424.892 301.572 424.892H299.16V431H295.932V413.648H301.572ZM316.452 425.744C315.596 425.784 314.876 425.86 314.292 425.972C313.708 426.076 313.24 426.212 312.888 426.38C312.536 426.548 312.284 426.744 312.132 426.968C311.98 427.192 311.904 427.436 311.904 427.7C311.904 428.22 312.056 428.592 312.36 428.816C312.672 429.04 313.076 429.152 313.572 429.152C314.18 429.152 314.704 429.044 315.144 428.828C315.592 428.604 316.028 428.268 316.452 427.82V425.744ZM309.66 420.404C311.076 419.108 312.78 418.46 314.772 418.46C315.492 418.46 316.136 418.58 316.704 418.82C317.272 419.052 317.752 419.38 318.144 419.804C318.536 420.22 318.832 420.72 319.032 421.304C319.24 421.888 319.344 422.528 319.344 423.224V431H318C317.72 431 317.504 430.96 317.352 430.88C317.2 430.792 317.08 430.62 316.992 430.364L316.728 429.476C316.416 429.756 316.112 430.004 315.816 430.22C315.52 430.428 315.212 430.604 314.892 430.748C314.572 430.892 314.228 431 313.86 431.072C313.5 431.152 313.1 431.192 312.66 431.192C312.14 431.192 311.66 431.124 311.22 430.988C310.78 430.844 310.4 430.632 310.08 430.352C309.76 430.072 309.512 429.724 309.336 429.308C309.16 428.892 309.072 428.408 309.072 427.856C309.072 427.544 309.124 427.236 309.228 426.932C309.332 426.62 309.5 426.324 309.732 426.044C309.972 425.764 310.28 425.5 310.656 425.252C311.032 425.004 311.492 424.788 312.036 424.604C312.588 424.42 313.228 424.272 313.956 424.16C314.684 424.04 315.516 423.968 316.452 423.944V423.224C316.452 422.4 316.276 421.792 315.924 421.4C315.572 421 315.064 420.8 314.4 420.8C313.92 420.8 313.52 420.856 313.2 420.968C312.888 421.08 312.612 421.208 312.372 421.352C312.132 421.488 311.912 421.612 311.712 421.724C311.52 421.836 311.304 421.892 311.064 421.892C310.856 421.892 310.68 421.84 310.536 421.736C310.392 421.624 310.276 421.496 310.188 421.352L309.66 420.404ZM329.648 421.088C329.568 421.216 329.484 421.308 329.396 421.364C329.308 421.412 329.196 421.436 329.06 421.436C328.916 421.436 328.76 421.396 328.592 421.316C328.432 421.236 328.244 421.148 328.028 421.052C327.812 420.948 327.564 420.856 327.284 420.776C327.012 420.696 326.688 420.656 326.312 420.656C325.728 420.656 325.268 420.78 324.932 421.028C324.604 421.276 324.44 421.6 324.44 422C324.44 422.264 324.524 422.488 324.692 422.672C324.868 422.848 325.096 423.004 325.376 423.14C325.664 423.276 325.988 423.4 326.348 423.512C326.708 423.616 327.072 423.732 327.44 423.86C327.816 423.988 328.184 424.136 328.544 424.304C328.904 424.464 329.224 424.672 329.504 424.928C329.792 425.176 330.02 425.476 330.188 425.828C330.364 426.18 330.452 426.604 330.452 427.1C330.452 427.692 330.344 428.24 330.128 428.744C329.92 429.24 329.608 429.672 329.192 430.04C328.776 430.4 328.26 430.684 327.644 430.892C327.036 431.092 326.332 431.192 325.532 431.192C325.108 431.192 324.692 431.152 324.284 431.072C323.884 431 323.496 430.896 323.12 430.76C322.752 430.624 322.408 430.464 322.088 430.28C321.776 430.096 321.5 429.896 321.26 429.68L321.944 428.552C322.032 428.416 322.136 428.312 322.256 428.24C322.376 428.168 322.528 428.132 322.712 428.132C322.896 428.132 323.068 428.184 323.228 428.288C323.396 428.392 323.588 428.504 323.804 428.624C324.02 428.744 324.272 428.856 324.56 428.96C324.856 429.064 325.228 429.116 325.676 429.116C326.028 429.116 326.328 429.076 326.576 428.996C326.832 428.908 327.04 428.796 327.2 428.66C327.368 428.524 327.488 428.368 327.56 428.192C327.64 428.008 327.68 427.82 327.68 427.628C327.68 427.34 327.592 427.104 327.416 426.92C327.248 426.736 327.02 426.576 326.732 426.44C326.452 426.304 326.128 426.184 325.76 426.08C325.4 425.968 325.028 425.848 324.644 425.72C324.268 425.592 323.896 425.444 323.528 425.276C323.168 425.1 322.844 424.88 322.556 424.616C322.276 424.352 322.048 424.028 321.872 423.644C321.704 423.26 321.62 422.796 321.62 422.252C321.62 421.748 321.72 421.268 321.92 420.812C322.12 420.356 322.412 419.96 322.796 419.624C323.188 419.28 323.672 419.008 324.248 418.808C324.832 418.6 325.504 418.496 326.264 418.496C327.112 418.496 327.884 418.636 328.58 418.916C329.276 419.196 329.856 419.564 330.32 420.02L329.648 421.088ZM340.195 421.088C340.115 421.216 340.031 421.308 339.943 421.364C339.855 421.412 339.743 421.436 339.607 421.436C339.463 421.436 339.307 421.396 339.139 421.316C338.979 421.236 338.791 421.148 338.575 421.052C338.359 420.948 338.111 420.856 337.831 420.776C337.559 420.696 337.235 420.656 336.859 420.656C336.275 420.656 335.815 420.78 335.479 421.028C335.151 421.276 334.987 421.6 334.987 422C334.987 422.264 335.071 422.488 335.239 422.672C335.415 422.848 335.643 423.004 335.923 423.14C336.211 423.276 336.535 423.4 336.895 423.512C337.255 423.616 337.619 423.732 337.987 423.86C338.363 423.988 338.731 424.136 339.091 424.304C339.451 424.464 339.771 424.672 340.051 424.928C340.339 425.176 340.567 425.476 340.735 425.828C340.911 426.18 340.999 426.604 340.999 427.1C340.999 427.692 340.891 428.24 340.675 428.744C340.467 429.24 340.155 429.672 339.739 430.04C339.323 430.4 338.807 430.684 338.191 430.892C337.583 431.092 336.879 431.192 336.079 431.192C335.655 431.192 335.239 431.152 334.831 431.072C334.431 431 334.043 430.896 333.667 430.76C333.299 430.624 332.955 430.464 332.635 430.28C332.323 430.096 332.047 429.896 331.807 429.68L332.491 428.552C332.579 428.416 332.683 428.312 332.803 428.24C332.923 428.168 333.075 428.132 333.259 428.132C333.443 428.132 333.615 428.184 333.775 428.288C333.943 428.392 334.135 428.504 334.351 428.624C334.567 428.744 334.819 428.856 335.107 428.96C335.403 429.064 335.775 429.116 336.223 429.116C336.575 429.116 336.875 429.076 337.123 428.996C337.379 428.908 337.587 428.796 337.747 428.66C337.915 428.524 338.035 428.368 338.107 428.192C338.187 428.008 338.227 427.82 338.227 427.628C338.227 427.34 338.139 427.104 337.963 426.92C337.795 426.736 337.567 426.576 337.279 426.44C336.999 426.304 336.675 426.184 336.307 426.08C335.947 425.968 335.575 425.848 335.191 425.72C334.815 425.592 334.443 425.444 334.075 425.276C333.715 425.1 333.391 424.88 333.103 424.616C332.823 424.352 332.595 424.028 332.419 423.644C332.251 423.26 332.167 422.796 332.167 422.252C332.167 421.748 332.267 421.268 332.467 420.812C332.667 420.356 332.959 419.96 333.343 419.624C333.735 419.28 334.219 419.008 334.795 418.808C335.379 418.6 336.051 418.496 336.811 418.496C337.659 418.496 338.431 418.636 339.127 418.916C339.823 419.196 340.403 419.564 340.867 420.02L340.195 421.088ZM360.81 418.688L356.898 431H354.522C354.25 431 354.062 430.824 353.958 430.472L351.75 423.356C351.678 423.116 351.61 422.88 351.546 422.648C351.49 422.408 351.442 422.168 351.402 421.928C351.354 422.168 351.298 422.412 351.234 422.66C351.178 422.9 351.114 423.14 351.042 423.38L348.798 430.472C348.702 430.824 348.49 431 348.162 431H345.882L341.982 418.688H344.346C344.562 418.688 344.746 418.74 344.898 418.844C345.05 418.948 345.15 419.08 345.198 419.24L346.962 425.816C347.05 426.176 347.126 426.528 347.19 426.872C347.262 427.216 347.322 427.56 347.37 427.904C347.458 427.56 347.55 427.216 347.646 426.872C347.75 426.528 347.858 426.176 347.97 425.816L350.01 419.216C350.058 419.056 350.15 418.924 350.286 418.82C350.43 418.716 350.602 418.664 350.802 418.664H352.11C352.318 418.664 352.494 418.716 352.638 418.82C352.79 418.924 352.89 419.056 352.938 419.216L354.918 425.816C355.022 426.176 355.118 426.532 355.206 426.884C355.302 427.228 355.394 427.572 355.482 427.916C355.586 427.236 355.734 426.536 355.926 425.816L357.738 419.24C357.794 419.08 357.894 418.948 358.038 418.844C358.182 418.74 358.354 418.688 358.554 418.688H360.81ZM367.732 418.496C368.644 418.496 369.472 418.644 370.216 418.94C370.968 419.236 371.608 419.656 372.136 420.2C372.672 420.744 373.084 421.408 373.372 422.192C373.66 422.976 373.804 423.852 373.804 424.82C373.804 425.796 373.66 426.676 373.372 427.46C373.084 428.244 372.672 428.912 372.136 429.464C371.608 430.016 370.968 430.44 370.216 430.736C369.472 431.032 368.644 431.18 367.732 431.18C366.812 431.18 365.976 431.032 365.224 430.736C364.472 430.44 363.828 430.016 363.292 429.464C362.764 428.912 362.352 428.244 362.056 427.46C361.768 426.676 361.624 425.796 361.624 424.82C361.624 423.852 361.768 422.976 362.056 422.192C362.352 421.408 362.764 420.744 363.292 420.2C363.828 419.656 364.472 419.236 365.224 418.94C365.976 418.644 366.812 418.496 367.732 418.496ZM367.732 428.9C368.756 428.9 369.512 428.556 370 427.868C370.496 427.18 370.744 426.172 370.744 424.844C370.744 423.516 370.496 422.504 370 421.808C369.512 421.112 368.756 420.764 367.732 420.764C366.692 420.764 365.92 421.116 365.416 421.82C364.92 422.516 364.672 423.524 364.672 424.844C364.672 426.164 364.92 427.172 365.416 427.868C365.92 428.556 366.692 428.9 367.732 428.9ZM378.862 420.824C379.246 420.088 379.702 419.512 380.23 419.096C380.758 418.672 381.382 418.46 382.102 418.46C382.67 418.46 383.126 418.584 383.47 418.832L383.278 421.052C383.238 421.196 383.178 421.3 383.098 421.364C383.026 421.42 382.926 421.448 382.798 421.448C382.678 421.448 382.498 421.428 382.258 421.388C382.026 421.348 381.798 421.328 381.574 421.328C381.246 421.328 380.954 421.376 380.698 421.472C380.442 421.568 380.21 421.708 380.002 421.892C379.802 422.068 379.622 422.284 379.462 422.54C379.31 422.796 379.166 423.088 379.03 423.416V431H376.066V418.688H377.806C378.11 418.688 378.322 418.744 378.442 418.856C378.562 418.96 378.642 419.152 378.682 419.432L378.862 420.824ZM392.419 421.832C392.083 421.424 391.715 421.136 391.315 420.968C390.923 420.8 390.499 420.716 390.043 420.716C389.595 420.716 389.191 420.8 388.831 420.968C388.471 421.136 388.163 421.392 387.907 421.736C387.651 422.072 387.455 422.504 387.319 423.032C387.183 423.552 387.115 424.168 387.115 424.88C387.115 425.6 387.171 426.212 387.283 426.716C387.403 427.212 387.571 427.62 387.787 427.94C388.003 428.252 388.267 428.48 388.579 428.624C388.891 428.76 389.239 428.828 389.623 428.828C390.239 428.828 390.763 428.7 391.195 428.444C391.627 428.188 392.035 427.824 392.419 427.352V421.832ZM395.383 413.168V431H393.571C393.179 431 392.931 430.82 392.827 430.46L392.575 429.272C392.079 429.84 391.507 430.3 390.859 430.652C390.219 431.004 389.471 431.18 388.615 431.18C387.943 431.18 387.327 431.04 386.767 430.76C386.207 430.48 385.723 430.076 385.315 429.548C384.915 429.012 384.603 428.352 384.379 427.568C384.163 426.784 384.055 425.888 384.055 424.88C384.055 423.968 384.179 423.12 384.427 422.336C384.675 421.552 385.031 420.872 385.495 420.296C385.959 419.72 386.515 419.272 387.163 418.952C387.811 418.624 388.539 418.46 389.347 418.46C390.035 418.46 390.623 418.568 391.111 418.784C391.599 419 392.035 419.292 392.419 419.66V413.168H395.383Z" fill="white"/>
<path d="M209.916 281.396C210.54 281.396 211.096 281.292 211.584 281.084C212.08 280.876 212.496 280.584 212.832 280.208C213.168 279.832 213.424 279.376 213.6 278.84C213.784 278.304 213.876 277.704 213.876 277.04V266.648H217.104V277.04C217.104 278.072 216.936 279.028 216.6 279.908C216.272 280.78 215.796 281.536 215.172 282.176C214.556 282.808 213.804 283.304 212.916 283.664C212.028 284.016 211.028 284.192 209.916 284.192C208.796 284.192 207.792 284.016 206.904 283.664C206.016 283.304 205.26 282.808 204.636 282.176C204.02 281.536 203.544 280.78 203.208 279.908C202.88 279.028 202.716 278.072 202.716 277.04V266.648H205.944V277.028C205.944 277.692 206.032 278.292 206.208 278.828C206.392 279.364 206.652 279.824 206.988 280.208C207.332 280.584 207.748 280.876 208.236 281.084C208.732 281.292 209.292 281.396 209.916 281.396ZM227.273 274.088C227.193 274.216 227.109 274.308 227.021 274.364C226.933 274.412 226.821 274.436 226.685 274.436C226.541 274.436 226.385 274.396 226.217 274.316C226.057 274.236 225.869 274.148 225.653 274.052C225.437 273.948 225.189 273.856 224.909 273.776C224.637 273.696 224.313 273.656 223.937 273.656C223.353 273.656 222.893 273.78 222.557 274.028C222.229 274.276 222.065 274.6 222.065 275C222.065 275.264 222.149 275.488 222.317 275.672C222.493 275.848 222.721 276.004 223.001 276.14C223.289 276.276 223.613 276.4 223.973 276.512C224.333 276.616 224.697 276.732 225.065 276.86C225.441 276.988 225.809 277.136 226.169 277.304C226.529 277.464 226.849 277.672 227.129 277.928C227.417 278.176 227.645 278.476 227.813 278.828C227.989 279.18 228.077 279.604 228.077 280.1C228.077 280.692 227.969 281.24 227.753 281.744C227.545 282.24 227.233 282.672 226.817 283.04C226.401 283.4 225.885 283.684 225.269 283.892C224.661 284.092 223.957 284.192 223.157 284.192C222.733 284.192 222.317 284.152 221.909 284.072C221.509 284 221.121 283.896 220.745 283.76C220.377 283.624 220.033 283.464 219.713 283.28C219.401 283.096 219.125 282.896 218.885 282.68L219.569 281.552C219.657 281.416 219.761 281.312 219.881 281.24C220.001 281.168 220.153 281.132 220.337 281.132C220.521 281.132 220.693 281.184 220.853 281.288C221.021 281.392 221.213 281.504 221.429 281.624C221.645 281.744 221.897 281.856 222.185 281.96C222.481 282.064 222.853 282.116 223.301 282.116C223.653 282.116 223.953 282.076 224.201 281.996C224.457 281.908 224.665 281.796 224.825 281.66C224.993 281.524 225.113 281.368 225.185 281.192C225.265 281.008 225.305 280.82 225.305 280.628C225.305 280.34 225.217 280.104 225.041 279.92C224.873 279.736 224.645 279.576 224.357 279.44C224.077 279.304 223.753 279.184 223.385 279.08C223.025 278.968 222.653 278.848 222.269 278.72C221.893 278.592 221.521 278.444 221.153 278.276C220.793 278.1 220.469 277.88 220.181 277.616C219.901 277.352 219.673 277.028 219.497 276.644C219.329 276.26 219.245 275.796 219.245 275.252C219.245 274.748 219.345 274.268 219.545 273.812C219.745 273.356 220.037 272.96 220.421 272.624C220.813 272.28 221.297 272.008 221.873 271.808C222.457 271.6 223.129 271.496 223.889 271.496C224.737 271.496 225.509 271.636 226.205 271.916C226.901 272.196 227.481 272.564 227.945 273.02L227.273 274.088ZM238.24 276.428C238.24 276.044 238.184 275.684 238.072 275.348C237.968 275.004 237.808 274.704 237.592 274.448C237.376 274.192 237.1 273.992 236.764 273.848C236.436 273.696 236.052 273.62 235.612 273.62C234.756 273.62 234.08 273.864 233.584 274.352C233.096 274.84 232.784 275.532 232.648 276.428H238.24ZM232.588 278.216C232.636 278.848 232.748 279.396 232.924 279.86C233.1 280.316 233.332 280.696 233.62 281C233.908 281.296 234.248 281.52 234.64 281.672C235.04 281.816 235.48 281.888 235.96 281.888C236.44 281.888 236.852 281.832 237.196 281.72C237.548 281.608 237.852 281.484 238.108 281.348C238.372 281.212 238.6 281.088 238.792 280.976C238.992 280.864 239.184 280.808 239.368 280.808C239.616 280.808 239.8 280.9 239.92 281.084L240.772 282.164C240.444 282.548 240.076 282.872 239.668 283.136C239.26 283.392 238.832 283.6 238.384 283.76C237.944 283.912 237.492 284.02 237.028 284.084C236.572 284.148 236.128 284.18 235.696 284.18C234.84 284.18 234.044 284.04 233.308 283.76C232.572 283.472 231.932 283.052 231.388 282.5C230.844 281.94 230.416 281.252 230.104 280.436C229.792 279.612 229.636 278.66 229.636 277.58C229.636 276.74 229.772 275.952 230.044 275.216C230.316 274.472 230.704 273.828 231.208 273.284C231.72 272.732 232.34 272.296 233.068 271.976C233.804 271.656 234.632 271.496 235.552 271.496C236.328 271.496 237.044 271.62 237.7 271.868C238.356 272.116 238.92 272.48 239.392 272.96C239.864 273.432 240.232 274.016 240.496 274.712C240.768 275.4 240.904 276.188 240.904 277.076C240.904 277.524 240.856 277.828 240.76 277.988C240.664 278.14 240.48 278.216 240.208 278.216H232.588ZM245.924 273.824C246.308 273.088 246.764 272.512 247.292 272.096C247.82 271.672 248.444 271.46 249.164 271.46C249.732 271.46 250.188 271.584 250.532 271.832L250.34 274.052C250.3 274.196 250.24 274.3 250.16 274.364C250.088 274.42 249.988 274.448 249.86 274.448C249.74 274.448 249.56 274.428 249.32 274.388C249.088 274.348 248.86 274.328 248.636 274.328C248.308 274.328 248.016 274.376 247.76 274.472C247.504 274.568 247.272 274.708 247.064 274.892C246.864 275.068 246.684 275.284 246.524 275.54C246.372 275.796 246.228 276.088 246.092 276.416V284H243.128V271.688H244.868C245.172 271.688 245.384 271.744 245.504 271.856C245.624 271.96 245.704 272.152 245.744 272.432L245.924 273.824ZM254.853 273.2C255.101 272.952 255.361 272.724 255.633 272.516C255.913 272.3 256.205 272.12 256.509 271.976C256.821 271.824 257.153 271.708 257.505 271.628C257.857 271.54 258.241 271.496 258.657 271.496C259.329 271.496 259.925 271.612 260.445 271.844C260.965 272.068 261.397 272.388 261.741 272.804C262.093 273.212 262.357 273.704 262.533 274.28C262.717 274.848 262.809 275.476 262.809 276.164V284H259.845V276.164C259.845 275.412 259.673 274.832 259.329 274.424C258.985 274.008 258.461 273.8 257.757 273.8C257.245 273.8 256.765 273.916 256.317 274.148C255.869 274.38 255.445 274.696 255.045 275.096V284H252.081V271.688H253.893C254.277 271.688 254.529 271.868 254.649 272.228L254.853 273.2ZM272.132 278.744C271.276 278.784 270.556 278.86 269.972 278.972C269.388 279.076 268.92 279.212 268.568 279.38C268.216 279.548 267.964 279.744 267.812 279.968C267.66 280.192 267.584 280.436 267.584 280.7C267.584 281.22 267.736 281.592 268.04 281.816C268.352 282.04 268.756 282.152 269.252 282.152C269.86 282.152 270.384 282.044 270.824 281.828C271.272 281.604 271.708 281.268 272.132 280.82V278.744ZM265.34 273.404C266.756 272.108 268.46 271.46 270.452 271.46C271.172 271.46 271.816 271.58 272.384 271.82C272.952 272.052 273.432 272.38 273.824 272.804C274.216 273.22 274.512 273.72 274.712 274.304C274.92 274.888 275.024 275.528 275.024 276.224V284H273.68C273.4 284 273.184 283.96 273.032 283.88C272.88 283.792 272.76 283.62 272.672 283.364L272.408 282.476C272.096 282.756 271.792 283.004 271.496 283.22C271.2 283.428 270.892 283.604 270.572 283.748C270.252 283.892 269.908 284 269.54 284.072C269.18 284.152 268.78 284.192 268.34 284.192C267.82 284.192 267.34 284.124 266.9 283.988C266.46 283.844 266.08 283.632 265.76 283.352C265.44 283.072 265.192 282.724 265.016 282.308C264.84 281.892 264.752 281.408 264.752 280.856C264.752 280.544 264.804 280.236 264.908 279.932C265.012 279.62 265.18 279.324 265.412 279.044C265.652 278.764 265.96 278.5 266.336 278.252C266.712 278.004 267.172 277.788 267.716 277.604C268.268 277.42 268.908 277.272 269.636 277.16C270.364 277.04 271.196 276.968 272.132 276.944V276.224C272.132 275.4 271.956 274.792 271.604 274.4C271.252 274 270.744 273.8 270.08 273.8C269.6 273.8 269.2 273.856 268.88 273.968C268.568 274.08 268.292 274.208 268.052 274.352C267.812 274.488 267.592 274.612 267.392 274.724C267.2 274.836 266.984 274.892 266.744 274.892C266.536 274.892 266.36 274.84 266.216 274.736C266.072 274.624 265.956 274.496 265.868 274.352L265.34 273.404ZM277.816 284V271.688H279.628C280.012 271.688 280.264 271.868 280.384 272.228L280.576 273.14C280.792 272.9 281.016 272.68 281.248 272.48C281.488 272.28 281.74 272.108 282.004 271.964C282.276 271.82 282.564 271.708 282.868 271.628C283.18 271.54 283.52 271.496 283.888 271.496C284.664 271.496 285.3 271.708 285.796 272.132C286.3 272.548 286.676 273.104 286.924 273.8C287.116 273.392 287.356 273.044 287.644 272.756C287.932 272.46 288.248 272.22 288.592 272.036C288.936 271.852 289.3 271.716 289.684 271.628C290.076 271.54 290.468 271.496 290.86 271.496C291.54 271.496 292.144 271.6 292.672 271.808C293.2 272.016 293.644 272.32 294.004 272.72C294.364 273.12 294.636 273.608 294.82 274.184C295.012 274.76 295.108 275.42 295.108 276.164V284H292.144V276.164C292.144 275.38 291.972 274.792 291.628 274.4C291.284 274 290.78 273.8 290.116 273.8C289.812 273.8 289.528 273.852 289.264 273.956C289.008 274.06 288.78 274.212 288.58 274.412C288.388 274.604 288.236 274.848 288.124 275.144C288.012 275.44 287.956 275.78 287.956 276.164V284H284.98V276.164C284.98 275.34 284.812 274.74 284.476 274.364C284.148 273.988 283.664 273.8 283.024 273.8C282.592 273.8 282.188 273.908 281.812 274.124C281.444 274.332 281.1 274.62 280.78 274.988V284H277.816ZM305.857 276.428C305.857 276.044 305.801 275.684 305.689 275.348C305.585 275.004 305.425 274.704 305.209 274.448C304.993 274.192 304.717 273.992 304.381 273.848C304.053 273.696 303.669 273.62 303.229 273.62C302.373 273.62 301.697 273.864 301.201 274.352C300.713 274.84 300.401 275.532 300.265 276.428H305.857ZM300.205 278.216C300.253 278.848 300.365 279.396 300.541 279.86C300.717 280.316 300.949 280.696 301.237 281C301.525 281.296 301.865 281.52 302.257 281.672C302.657 281.816 303.097 281.888 303.577 281.888C304.057 281.888 304.469 281.832 304.813 281.72C305.165 281.608 305.469 281.484 305.725 281.348C305.989 281.212 306.217 281.088 306.409 280.976C306.609 280.864 306.801 280.808 306.985 280.808C307.233 280.808 307.417 280.9 307.537 281.084L308.389 282.164C308.061 282.548 307.693 282.872 307.285 283.136C306.877 283.392 306.449 283.6 306.001 283.76C305.561 283.912 305.109 284.02 304.645 284.084C304.189 284.148 303.745 284.18 303.313 284.18C302.457 284.18 301.661 284.04 300.925 283.76C300.189 283.472 299.549 283.052 299.005 282.5C298.461 281.94 298.033 281.252 297.721 280.436C297.409 279.612 297.253 278.66 297.253 277.58C297.253 276.74 297.389 275.952 297.661 275.216C297.933 274.472 298.321 273.828 298.825 273.284C299.337 272.732 299.957 272.296 300.685 271.976C301.421 271.656 302.249 271.496 303.169 271.496C303.945 271.496 304.661 271.62 305.317 271.868C305.973 272.116 306.537 272.48 307.009 272.96C307.481 273.432 307.849 274.016 308.113 274.712C308.385 275.4 308.521 276.188 308.521 277.076C308.521 277.524 308.473 277.828 308.377 277.988C308.281 278.14 308.097 278.216 307.825 278.216H300.205ZM322.029 271.496C322.941 271.496 323.769 271.644 324.513 271.94C325.265 272.236 325.905 272.656 326.433 273.2C326.969 273.744 327.381 274.408 327.669 275.192C327.957 275.976 328.101 276.852 328.101 277.82C328.101 278.796 327.957 279.676 327.669 280.46C327.381 281.244 326.969 281.912 326.433 282.464C325.905 283.016 325.265 283.44 324.513 283.736C323.769 284.032 322.941 284.18 322.029 284.18C321.109 284.18 320.273 284.032 319.521 283.736C318.769 283.44 318.125 283.016 317.589 282.464C317.061 281.912 316.649 281.244 316.353 280.46C316.065 279.676 315.921 278.796 315.921 277.82C315.921 276.852 316.065 275.976 316.353 275.192C316.649 274.408 317.061 273.744 317.589 273.2C318.125 272.656 318.769 272.236 319.521 271.94C320.273 271.644 321.109 271.496 322.029 271.496ZM322.029 281.9C323.053 281.9 323.809 281.556 324.297 280.868C324.793 280.18 325.041 279.172 325.041 277.844C325.041 276.516 324.793 275.504 324.297 274.808C323.809 274.112 323.053 273.764 322.029 273.764C320.989 273.764 320.217 274.116 319.713 274.82C319.217 275.516 318.969 276.524 318.969 277.844C318.969 279.164 319.217 280.172 319.713 280.868C320.217 281.556 320.989 281.9 322.029 281.9ZM333.158 273.824C333.542 273.088 333.998 272.512 334.526 272.096C335.054 271.672 335.678 271.46 336.398 271.46C336.966 271.46 337.422 271.584 337.766 271.832L337.574 274.052C337.534 274.196 337.474 274.3 337.394 274.364C337.322 274.42 337.222 274.448 337.094 274.448C336.974 274.448 336.794 274.428 336.554 274.388C336.322 274.348 336.094 274.328 335.87 274.328C335.542 274.328 335.25 274.376 334.994 274.472C334.738 274.568 334.506 274.708 334.298 274.892C334.098 275.068 333.918 275.284 333.758 275.54C333.606 275.796 333.462 276.088 333.326 276.416V284H330.362V271.688H332.102C332.406 271.688 332.618 271.744 332.738 271.856C332.858 271.96 332.938 272.152 332.978 272.432L333.158 273.824ZM348.344 269.216V274.028H354.416V276.512H348.344V281.42H356.048V284H345.104V266.648H356.048V269.216H348.344ZM358.183 284V271.688H359.995C360.379 271.688 360.631 271.868 360.751 272.228L360.943 273.14C361.159 272.9 361.383 272.68 361.615 272.48C361.855 272.28 362.107 272.108 362.371 271.964C362.643 271.82 362.931 271.708 363.235 271.628C363.547 271.54 363.887 271.496 364.255 271.496C365.031 271.496 365.667 271.708 366.163 272.132C366.667 272.548 367.043 273.104 367.291 273.8C367.483 273.392 367.723 273.044 368.011 272.756C368.299 272.46 368.615 272.22 368.959 272.036C369.303 271.852 369.667 271.716 370.051 271.628C370.443 271.54 370.835 271.496 371.227 271.496C371.907 271.496 372.511 271.6 373.039 271.808C373.567 272.016 374.011 272.32 374.371 272.72C374.731 273.12 375.003 273.608 375.187 274.184C375.379 274.76 375.475 275.42 375.475 276.164V284H372.511V276.164C372.511 275.38 372.339 274.792 371.995 274.4C371.651 274 371.147 273.8 370.483 273.8C370.179 273.8 369.895 273.852 369.631 273.956C369.375 274.06 369.147 274.212 368.947 274.412C368.755 274.604 368.603 274.848 368.491 275.144C368.379 275.44 368.323 275.78 368.323 276.164V284H365.347V276.164C365.347 275.34 365.179 274.74 364.843 274.364C364.515 273.988 364.031 273.8 363.391 273.8C362.959 273.8 362.555 273.908 362.179 274.124C361.811 274.332 361.467 274.62 361.147 274.988V284H358.183ZM384.796 278.744C383.94 278.784 383.22 278.86 382.636 278.972C382.052 279.076 381.584 279.212 381.232 279.38C380.88 279.548 380.628 279.744 380.476 279.968C380.324 280.192 380.248 280.436 380.248 280.7C380.248 281.22 380.4 281.592 380.704 281.816C381.016 282.04 381.42 282.152 381.916 282.152C382.524 282.152 383.048 282.044 383.488 281.828C383.936 281.604 384.372 281.268 384.796 280.82V278.744ZM378.004 273.404C379.42 272.108 381.124 271.46 383.116 271.46C383.836 271.46 384.48 271.58 385.048 271.82C385.616 272.052 386.096 272.38 386.488 272.804C386.88 273.22 387.176 273.72 387.376 274.304C387.584 274.888 387.688 275.528 387.688 276.224V284H386.344C386.064 284 385.848 283.96 385.696 283.88C385.544 283.792 385.424 283.62 385.336 283.364L385.072 282.476C384.76 282.756 384.456 283.004 384.16 283.22C383.864 283.428 383.556 283.604 383.236 283.748C382.916 283.892 382.572 284 382.204 284.072C381.844 284.152 381.444 284.192 381.004 284.192C380.484 284.192 380.004 284.124 379.564 283.988C379.124 283.844 378.744 283.632 378.424 283.352C378.104 283.072 377.856 282.724 377.68 282.308C377.504 281.892 377.416 281.408 377.416 280.856C377.416 280.544 377.468 280.236 377.572 279.932C377.676 279.62 377.844 279.324 378.076 279.044C378.316 278.764 378.624 278.5 379 278.252C379.376 278.004 379.836 277.788 380.38 277.604C380.932 277.42 381.572 277.272 382.3 277.16C383.028 277.04 383.86 276.968 384.796 276.944V276.224C384.796 275.4 384.62 274.792 384.268 274.4C383.916 274 383.408 273.8 382.744 273.8C382.264 273.8 381.864 273.856 381.544 273.968C381.232 274.08 380.956 274.208 380.716 274.352C380.476 274.488 380.256 274.612 380.056 274.724C379.864 274.836 379.648 274.892 379.408 274.892C379.2 274.892 379.024 274.84 378.88 274.736C378.736 274.624 378.62 274.496 378.532 274.352L378.004 273.404ZM393.552 271.688V284H390.576V271.688H393.552ZM393.96 268.1C393.96 268.356 393.908 268.596 393.804 268.82C393.7 269.044 393.56 269.24 393.384 269.408C393.216 269.576 393.016 269.712 392.784 269.816C392.552 269.912 392.304 269.96 392.04 269.96C391.784 269.96 391.54 269.912 391.308 269.816C391.084 269.712 390.888 269.576 390.72 269.408C390.552 269.24 390.416 269.044 390.312 268.82C390.216 268.596 390.168 268.356 390.168 268.1C390.168 267.836 390.216 267.588 390.312 267.356C390.416 267.124 390.552 266.924 390.72 266.756C390.888 266.588 391.084 266.456 391.308 266.36C391.54 266.256 391.784 266.204 392.04 266.204C392.304 266.204 392.552 266.256 392.784 266.36C393.016 266.456 393.216 266.588 393.384 266.756C393.56 266.924 393.7 267.124 393.804 267.356C393.908 267.588 393.96 267.836 393.96 268.1ZM399.573 266.168V284H396.609V266.168H399.573ZM417.202 277.448L415.09 271.676C414.986 271.42 414.878 271.116 414.766 270.764C414.654 270.412 414.542 270.032 414.43 269.624C414.326 270.032 414.218 270.416 414.106 270.776C413.994 271.128 413.886 271.436 413.782 271.7L411.682 277.448H417.202ZM422.902 284H420.406C420.126 284 419.898 283.932 419.722 283.796C419.546 283.652 419.414 283.476 419.326 283.268L418.03 279.728H410.842L409.546 283.268C409.482 283.452 409.358 283.62 409.174 283.772C408.99 283.924 408.762 284 408.49 284H405.97L412.798 266.648H416.086L422.902 284ZM431.7 274.832C431.364 274.424 430.996 274.136 430.596 273.968C430.204 273.8 429.78 273.716 429.324 273.716C428.876 273.716 428.472 273.8 428.112 273.968C427.752 274.136 427.444 274.392 427.188 274.736C426.932 275.072 426.736 275.504 426.6 276.032C426.464 276.552 426.396 277.168 426.396 277.88C426.396 278.6 426.452 279.212 426.564 279.716C426.684 280.212 426.852 280.62 427.068 280.94C427.284 281.252 427.548 281.48 427.86 281.624C428.172 281.76 428.52 281.828 428.904 281.828C429.52 281.828 430.044 281.7 430.476 281.444C430.908 281.188 431.316 280.824 431.7 280.352V274.832ZM434.664 266.168V284H432.852C432.46 284 432.212 283.82 432.108 283.46L431.856 282.272C431.36 282.84 430.788 283.3 430.14 283.652C429.5 284.004 428.752 284.18 427.896 284.18C427.224 284.18 426.608 284.04 426.048 283.76C425.488 283.48 425.004 283.076 424.596 282.548C424.196 282.012 423.884 281.352 423.66 280.568C423.444 279.784 423.336 278.888 423.336 277.88C423.336 276.968 423.46 276.12 423.708 275.336C423.956 274.552 424.312 273.872 424.776 273.296C425.24 272.72 425.796 272.272 426.444 271.952C427.092 271.624 427.82 271.46 428.628 271.46C429.316 271.46 429.904 271.568 430.392 271.784C430.88 272 431.316 272.292 431.7 272.66V266.168H434.664ZM445.317 274.832C444.981 274.424 444.613 274.136 444.213 273.968C443.821 273.8 443.397 273.716 442.941 273.716C442.493 273.716 442.089 273.8 441.729 273.968C441.369 274.136 441.061 274.392 440.805 274.736C440.549 275.072 440.353 275.504 440.217 276.032C440.081 276.552 440.013 277.168 440.013 277.88C440.013 278.6 440.069 279.212 440.181 279.716C440.301 280.212 440.469 280.62 440.685 280.94C440.901 281.252 441.165 281.48 441.477 281.624C441.789 281.76 442.137 281.828 442.521 281.828C443.137 281.828 443.661 281.7 444.093 281.444C444.525 281.188 444.933 280.824 445.317 280.352V274.832ZM448.281 266.168V284H446.469C446.077 284 445.829 283.82 445.725 283.46L445.473 282.272C444.977 282.84 444.405 283.3 443.757 283.652C443.117 284.004 442.369 284.18 441.513 284.18C440.841 284.18 440.225 284.04 439.665 283.76C439.105 283.48 438.621 283.076 438.213 282.548C437.813 282.012 437.501 281.352 437.277 280.568C437.061 279.784 436.953 278.888 436.953 277.88C436.953 276.968 437.077 276.12 437.325 275.336C437.573 274.552 437.929 273.872 438.393 273.296C438.857 272.72 439.413 272.272 440.061 271.952C440.709 271.624 441.437 271.46 442.245 271.46C442.933 271.46 443.521 271.568 444.009 271.784C444.497 272 444.933 272.292 445.317 272.66V266.168H448.281ZM454.002 273.824C454.386 273.088 454.842 272.512 455.37 272.096C455.898 271.672 456.522 271.46 457.242 271.46C457.81 271.46 458.266 271.584 458.61 271.832L458.418 274.052C458.378 274.196 458.318 274.3 458.238 274.364C458.166 274.42 458.066 274.448 457.938 274.448C457.818 274.448 457.638 274.428 457.398 274.388C457.166 274.348 456.938 274.328 456.714 274.328C456.386 274.328 456.094 274.376 455.838 274.472C455.582 274.568 455.35 274.708 455.142 274.892C454.942 275.068 454.762 275.284 454.602 275.54C454.45 275.796 454.306 276.088 454.17 276.416V284H451.206V271.688H452.946C453.25 271.688 453.462 271.744 453.582 271.856C453.702 271.96 453.782 272.152 453.822 272.432L454.002 273.824ZM467.74 276.428C467.74 276.044 467.684 275.684 467.572 275.348C467.468 275.004 467.308 274.704 467.092 274.448C466.876 274.192 466.6 273.992 466.264 273.848C465.936 273.696 465.552 273.62 465.112 273.62C464.256 273.62 463.58 273.864 463.084 274.352C462.596 274.84 462.284 275.532 462.148 276.428H467.74ZM462.088 278.216C462.136 278.848 462.248 279.396 462.424 279.86C462.6 280.316 462.832 280.696 463.12 281C463.408 281.296 463.748 281.52 464.14 281.672C464.54 281.816 464.98 281.888 465.46 281.888C465.94 281.888 466.352 281.832 466.696 281.72C467.048 281.608 467.352 281.484 467.608 281.348C467.872 281.212 468.1 281.088 468.292 280.976C468.492 280.864 468.684 280.808 468.868 280.808C469.116 280.808 469.3 280.9 469.42 281.084L470.272 282.164C469.944 282.548 469.576 282.872 469.168 283.136C468.76 283.392 468.332 283.6 467.884 283.76C467.444 283.912 466.992 284.02 466.528 284.084C466.072 284.148 465.628 284.18 465.196 284.18C464.34 284.18 463.544 284.04 462.808 283.76C462.072 283.472 461.432 283.052 460.888 282.5C460.344 281.94 459.916 281.252 459.604 280.436C459.292 279.612 459.136 278.66 459.136 277.58C459.136 276.74 459.272 275.952 459.544 275.216C459.816 274.472 460.204 273.828 460.708 273.284C461.22 272.732 461.84 272.296 462.568 271.976C463.304 271.656 464.132 271.496 465.052 271.496C465.828 271.496 466.544 271.62 467.2 271.868C467.856 272.116 468.42 272.48 468.892 272.96C469.364 273.432 469.732 274.016 469.996 274.712C470.268 275.4 470.404 276.188 470.404 277.076C470.404 277.524 470.356 277.828 470.26 277.988C470.164 278.14 469.98 278.216 469.708 278.216H462.088ZM480.14 274.088C480.06 274.216 479.976 274.308 479.888 274.364C479.8 274.412 479.688 274.436 479.552 274.436C479.408 274.436 479.252 274.396 479.084 274.316C478.924 274.236 478.736 274.148 478.52 274.052C478.304 273.948 478.056 273.856 477.776 273.776C477.504 273.696 477.18 273.656 476.804 273.656C476.22 273.656 475.76 273.78 475.424 274.028C475.096 274.276 474.932 274.6 474.932 275C474.932 275.264 475.016 275.488 475.184 275.672C475.36 275.848 475.588 276.004 475.868 276.14C476.156 276.276 476.48 276.4 476.84 276.512C477.2 276.616 477.564 276.732 477.932 276.86C478.308 276.988 478.676 277.136 479.036 277.304C479.396 277.464 479.716 277.672 479.996 277.928C480.284 278.176 480.512 278.476 480.68 278.828C480.856 279.18 480.944 279.604 480.944 280.1C480.944 280.692 480.836 281.24 480.62 281.744C480.412 282.24 480.1 282.672 479.684 283.04C479.268 283.4 478.752 283.684 478.136 283.892C477.528 284.092 476.824 284.192 476.024 284.192C475.6 284.192 475.184 284.152 474.776 284.072C474.376 284 473.988 283.896 473.612 283.76C473.244 283.624 472.9 283.464 472.58 283.28C472.268 283.096 471.992 282.896 471.752 282.68L472.436 281.552C472.524 281.416 472.628 281.312 472.748 281.24C472.868 281.168 473.02 281.132 473.204 281.132C473.388 281.132 473.56 281.184 473.72 281.288C473.888 281.392 474.08 281.504 474.296 281.624C474.512 281.744 474.764 281.856 475.052 281.96C475.348 282.064 475.72 282.116 476.168 282.116C476.52 282.116 476.82 282.076 477.068 281.996C477.324 281.908 477.532 281.796 477.692 281.66C477.86 281.524 477.98 281.368 478.052 281.192C478.132 281.008 478.172 280.82 478.172 280.628C478.172 280.34 478.084 280.104 477.908 279.92C477.74 279.736 477.512 279.576 477.224 279.44C476.944 279.304 476.62 279.184 476.252 279.08C475.892 278.968 475.52 278.848 475.136 278.72C474.76 278.592 474.388 278.444 474.02 278.276C473.66 278.1 473.336 277.88 473.048 277.616C472.768 277.352 472.54 277.028 472.364 276.644C472.196 276.26 472.112 275.796 472.112 275.252C472.112 274.748 472.212 274.268 472.412 273.812C472.612 273.356 472.904 272.96 473.288 272.624C473.68 272.28 474.164 272.008 474.74 271.808C475.324 271.6 475.996 271.496 476.756 271.496C477.604 271.496 478.376 271.636 479.072 271.916C479.768 272.196 480.348 272.564 480.812 273.02L480.14 274.088ZM490.687 274.088C490.607 274.216 490.523 274.308 490.435 274.364C490.347 274.412 490.235 274.436 490.099 274.436C489.955 274.436 489.799 274.396 489.631 274.316C489.471 274.236 489.283 274.148 489.067 274.052C488.851 273.948 488.603 273.856 488.323 273.776C488.051 273.696 487.727 273.656 487.351 273.656C486.767 273.656 486.307 273.78 485.971 274.028C485.643 274.276 485.479 274.6 485.479 275C485.479 275.264 485.563 275.488 485.731 275.672C485.907 275.848 486.135 276.004 486.415 276.14C486.703 276.276 487.027 276.4 487.387 276.512C487.747 276.616 488.111 276.732 488.479 276.86C488.855 276.988 489.223 277.136 489.583 277.304C489.943 277.464 490.263 277.672 490.543 277.928C490.831 278.176 491.059 278.476 491.227 278.828C491.403 279.18 491.491 279.604 491.491 280.1C491.491 280.692 491.383 281.24 491.167 281.744C490.959 282.24 490.647 282.672 490.231 283.04C489.815 283.4 489.299 283.684 488.683 283.892C488.075 284.092 487.371 284.192 486.571 284.192C486.147 284.192 485.731 284.152 485.323 284.072C484.923 284 484.535 283.896 484.159 283.76C483.791 283.624 483.447 283.464 483.127 283.28C482.815 283.096 482.539 282.896 482.299 282.68L482.983 281.552C483.071 281.416 483.175 281.312 483.295 281.24C483.415 281.168 483.567 281.132 483.751 281.132C483.935 281.132 484.107 281.184 484.267 281.288C484.435 281.392 484.627 281.504 484.843 281.624C485.059 281.744 485.311 281.856 485.599 281.96C485.895 282.064 486.267 282.116 486.715 282.116C487.067 282.116 487.367 282.076 487.615 281.996C487.871 281.908 488.079 281.796 488.239 281.66C488.407 281.524 488.527 281.368 488.599 281.192C488.679 281.008 488.719 280.82 488.719 280.628C488.719 280.34 488.631 280.104 488.455 279.92C488.287 279.736 488.059 279.576 487.771 279.44C487.491 279.304 487.167 279.184 486.799 279.08C486.439 278.968 486.067 278.848 485.683 278.72C485.307 278.592 484.935 278.444 484.567 278.276C484.207 278.1 483.883 277.88 483.595 277.616C483.315 277.352 483.087 277.028 482.911 276.644C482.743 276.26 482.659 275.796 482.659 275.252C482.659 274.748 482.759 274.268 482.959 273.812C483.159 273.356 483.451 272.96 483.835 272.624C484.227 272.28 484.711 272.008 485.287 271.808C485.871 271.6 486.543 271.496 487.303 271.496C488.151 271.496 488.923 271.636 489.619 271.916C490.315 272.196 490.895 272.564 491.359 273.02L490.687 274.088Z" fill="white"/>
<rect x="141" y="534" width="178" height="58" rx="25" fill="#DC1446"/>
<path d="M203.636 573.22C204.536 573.22 205.292 573.112 205.904 572.896C206.516 572.68 207.002 572.392 207.362 572.032C207.734 571.672 207.998 571.252 208.154 570.772C208.322 570.292 208.406 569.782 208.406 569.242C208.406 568.678 208.316 568.174 208.136 567.73C207.956 567.274 207.674 566.89 207.29 566.578C206.906 566.254 206.408 566.008 205.796 565.84C205.196 565.672 204.47 565.588 203.618 565.588H198.74V573.22H203.636ZM198.74 554.716V562.24H202.592C204.248 562.24 205.496 561.94 206.336 561.34C207.188 560.74 207.614 559.786 207.614 558.478C207.614 557.122 207.23 556.156 206.462 555.58C205.694 555.004 204.494 554.716 202.862 554.716H198.74ZM202.862 550.972C204.566 550.972 206.024 551.134 207.236 551.458C208.448 551.782 209.438 552.244 210.206 552.844C210.986 553.444 211.556 554.17 211.916 555.022C212.276 555.874 212.456 556.834 212.456 557.902C212.456 558.514 212.366 559.102 212.186 559.666C212.006 560.218 211.724 560.74 211.34 561.232C210.968 561.712 210.488 562.15 209.9 562.546C209.324 562.942 208.634 563.278 207.83 563.554C211.406 564.358 213.194 566.29 213.194 569.35C213.194 570.454 212.984 571.474 212.564 572.41C212.144 573.346 211.532 574.156 210.728 574.84C209.924 575.512 208.934 576.04 207.758 576.424C206.582 576.808 205.238 577 203.726 577H193.898V550.972H202.862ZM226.366 569.116C225.082 569.176 224.002 569.29 223.126 569.458C222.25 569.614 221.548 569.818 221.02 570.07C220.492 570.322 220.114 570.616 219.886 570.952C219.658 571.288 219.544 571.654 219.544 572.05C219.544 572.83 219.772 573.388 220.228 573.724C220.696 574.06 221.302 574.228 222.046 574.228C222.958 574.228 223.744 574.066 224.404 573.742C225.076 573.406 225.73 572.902 226.366 572.23V569.116ZM216.178 561.106C218.302 559.162 220.858 558.19 223.846 558.19C224.926 558.19 225.892 558.37 226.744 558.73C227.596 559.078 228.316 559.57 228.904 560.206C229.492 560.83 229.936 561.58 230.236 562.456C230.548 563.332 230.704 564.292 230.704 565.336V577H228.688C228.268 577 227.944 576.94 227.716 576.82C227.488 576.688 227.308 576.43 227.176 576.046L226.78 574.714C226.312 575.134 225.856 575.506 225.412 575.83C224.968 576.142 224.506 576.406 224.026 576.622C223.546 576.838 223.03 577 222.478 577.108C221.938 577.228 221.338 577.288 220.678 577.288C219.898 577.288 219.178 577.186 218.518 576.982C217.858 576.766 217.288 576.448 216.808 576.028C216.328 575.608 215.956 575.086 215.692 574.462C215.428 573.838 215.296 573.112 215.296 572.284C215.296 571.816 215.374 571.354 215.53 570.898C215.686 570.43 215.938 569.986 216.286 569.566C216.646 569.146 217.108 568.75 217.672 568.378C218.236 568.006 218.926 567.682 219.742 567.406C220.57 567.13 221.53 566.908 222.622 566.74C223.714 566.56 224.962 566.452 226.366 566.416V565.336C226.366 564.1 226.102 563.188 225.574 562.6C225.046 562 224.284 561.7 223.288 561.7C222.568 561.7 221.968 561.784 221.488 561.952C221.02 562.12 220.606 562.312 220.246 562.528C219.886 562.732 219.556 562.918 219.256 563.086C218.968 563.254 218.644 563.338 218.284 563.338C217.972 563.338 217.708 563.26 217.492 563.104C217.276 562.936 217.102 562.744 216.97 562.528L216.178 561.106ZM248.121 562.438C247.989 562.606 247.857 562.738 247.725 562.834C247.605 562.93 247.425 562.978 247.185 562.978C246.957 562.978 246.735 562.912 246.519 562.78C246.303 562.636 246.045 562.48 245.745 562.312C245.445 562.132 245.085 561.976 244.665 561.844C244.257 561.7 243.747 561.628 243.135 561.628C242.355 561.628 241.671 561.772 241.083 562.06C240.495 562.336 240.003 562.738 239.607 563.266C239.223 563.794 238.935 564.436 238.743 565.192C238.551 565.936 238.455 566.782 238.455 567.73C238.455 568.714 238.557 569.59 238.761 570.358C238.977 571.126 239.283 571.774 239.679 572.302C240.075 572.818 240.555 573.214 241.119 573.49C241.683 573.754 242.319 573.886 243.027 573.886C243.735 573.886 244.305 573.802 244.737 573.634C245.181 573.454 245.553 573.262 245.853 573.058C246.153 572.842 246.411 572.65 246.627 572.482C246.855 572.302 247.107 572.212 247.383 572.212C247.743 572.212 248.013 572.35 248.193 572.626L249.471 574.246C248.979 574.822 248.445 575.308 247.869 575.704C247.293 576.088 246.693 576.4 246.069 576.64C245.457 576.868 244.821 577.03 244.161 577.126C243.513 577.222 242.865 577.27 242.217 577.27C241.077 577.27 240.003 577.06 238.995 576.64C237.987 576.208 237.105 575.584 236.349 574.768C235.593 573.952 234.993 572.956 234.549 571.78C234.117 570.592 233.901 569.242 233.901 567.73C233.901 566.374 234.093 565.12 234.477 563.968C234.873 562.804 235.449 561.802 236.205 560.962C236.961 560.11 237.897 559.444 239.013 558.964C240.129 558.484 241.413 558.244 242.865 558.244C244.245 558.244 245.451 558.466 246.483 558.91C247.527 559.354 248.463 559.99 249.291 560.818L248.121 562.438ZM256.705 550.252V565.57H257.533C257.833 565.57 258.067 565.534 258.235 565.462C258.415 565.378 258.595 565.216 258.775 564.976L263.365 559.306C263.557 559.054 263.767 558.862 263.995 558.73C264.235 558.598 264.541 558.532 264.913 558.532H268.98L263.239 565.39C262.831 565.93 262.387 566.344 261.907 566.632C262.159 566.812 262.381 567.022 262.573 567.262C262.777 567.502 262.969 567.76 263.149 568.036L269.305 577H265.291C264.943 577 264.643 576.946 264.391 576.838C264.139 576.718 263.929 576.508 263.761 576.208L259.045 569.206C258.877 568.93 258.703 568.75 258.523 568.666C258.343 568.582 258.073 568.54 257.713 568.54H256.705V577H252.259V550.252H256.705Z" fill="#F2F2F2"/>
<rect x="358" y="534" width="178" height="58" rx="25" fill="#DC1446"/>
<path d="M422.144 573.004V577H406.898V550.972H411.74V573.004H422.144ZM432.122 558.244C433.49 558.244 434.732 558.466 435.848 558.91C436.976 559.354 437.936 559.984 438.728 560.8C439.532 561.616 440.15 562.612 440.582 563.788C441.014 564.964 441.23 566.278 441.23 567.73C441.23 569.194 441.014 570.514 440.582 571.69C440.15 572.866 439.532 573.868 438.728 574.696C437.936 575.524 436.976 576.16 435.848 576.604C434.732 577.048 433.49 577.27 432.122 577.27C430.742 577.27 429.488 577.048 428.36 576.604C427.232 576.16 426.266 575.524 425.462 574.696C424.67 573.868 424.052 572.866 423.608 571.69C423.176 570.514 422.96 569.194 422.96 567.73C422.96 566.278 423.176 564.964 423.608 563.788C424.052 562.612 424.67 561.616 425.462 560.8C426.266 559.984 427.232 559.354 428.36 558.91C429.488 558.466 430.742 558.244 432.122 558.244ZM432.122 573.85C433.658 573.85 434.792 573.334 435.524 572.302C436.268 571.27 436.64 569.758 436.64 567.766C436.64 565.774 436.268 564.256 435.524 563.212C434.792 562.168 433.658 561.646 432.122 561.646C430.562 561.646 429.404 562.174 428.648 563.23C427.904 564.274 427.532 565.786 427.532 567.766C427.532 569.746 427.904 571.258 428.648 572.302C429.404 573.334 430.562 573.85 432.122 573.85ZM451.231 567.316C451.783 567.316 452.263 567.244 452.671 567.1C453.079 566.944 453.415 566.734 453.679 566.47C453.955 566.206 454.159 565.888 454.291 565.516C454.435 565.144 454.507 564.736 454.507 564.292C454.507 563.38 454.231 562.66 453.679 562.132C453.139 561.592 452.323 561.322 451.231 561.322C450.139 561.322 449.317 561.592 448.765 562.132C448.225 562.66 447.955 563.38 447.955 564.292C447.955 564.724 448.021 565.126 448.153 565.498C448.297 565.87 448.501 566.194 448.765 566.47C449.041 566.734 449.383 566.944 449.791 567.1C450.211 567.244 450.691 567.316 451.231 567.316ZM456.253 577.828C456.253 577.468 456.145 577.174 455.929 576.946C455.713 576.718 455.419 576.544 455.047 576.424C454.675 576.292 454.237 576.196 453.733 576.136C453.241 576.076 452.713 576.034 452.149 576.01C451.597 575.974 451.021 575.944 450.421 575.92C449.833 575.896 449.257 575.848 448.693 575.776C448.201 576.052 447.799 576.376 447.487 576.748C447.187 577.12 447.037 577.552 447.037 578.044C447.037 578.368 447.115 578.668 447.271 578.944C447.439 579.232 447.697 579.478 448.045 579.682C448.405 579.886 448.867 580.042 449.431 580.15C449.995 580.27 450.685 580.33 451.501 580.33C452.329 580.33 453.043 580.264 453.643 580.132C454.243 580.012 454.735 579.838 455.119 579.61C455.515 579.394 455.803 579.13 455.983 578.818C456.163 578.518 456.253 578.188 456.253 577.828ZM460.681 559.162V560.818C460.681 561.346 460.363 561.67 459.727 561.79L458.071 562.096C458.323 562.732 458.449 563.428 458.449 564.184C458.449 565.096 458.263 565.924 457.891 566.668C457.531 567.4 457.027 568.024 456.379 568.54C455.731 569.056 454.963 569.458 454.075 569.746C453.199 570.022 452.251 570.16 451.231 570.16C450.871 570.16 450.523 570.142 450.187 570.106C449.851 570.07 449.521 570.022 449.197 569.962C448.621 570.31 448.333 570.7 448.333 571.132C448.333 571.504 448.501 571.78 448.837 571.96C449.185 572.128 449.641 572.248 450.205 572.32C450.769 572.392 451.411 572.44 452.131 572.464C452.851 572.476 453.589 572.512 454.345 572.572C455.101 572.632 455.839 572.74 456.559 572.896C457.279 573.04 457.921 573.274 458.485 573.598C459.049 573.922 459.499 574.366 459.835 574.93C460.183 575.482 460.357 576.196 460.357 577.072C460.357 577.888 460.153 578.68 459.745 579.448C459.349 580.216 458.767 580.9 457.999 581.5C457.243 582.1 456.307 582.58 455.191 582.94C454.087 583.312 452.827 583.498 451.411 583.498C450.019 583.498 448.807 583.36 447.775 583.084C446.743 582.82 445.885 582.46 445.201 582.004C444.517 581.56 444.007 581.044 443.671 580.456C443.335 579.868 443.167 579.256 443.167 578.62C443.167 577.756 443.425 577.036 443.941 576.46C444.469 575.872 445.189 575.404 446.101 575.056C445.609 574.804 445.219 574.468 444.931 574.048C444.643 573.628 444.499 573.076 444.499 572.392C444.499 572.116 444.547 571.834 444.643 571.546C444.751 571.246 444.901 570.952 445.093 570.664C445.297 570.376 445.549 570.106 445.849 569.854C446.149 569.59 446.503 569.356 446.911 569.152C445.975 568.648 445.237 567.976 444.697 567.136C444.169 566.296 443.905 565.312 443.905 564.184C443.905 563.272 444.085 562.45 444.445 561.718C444.817 560.974 445.327 560.344 445.975 559.828C446.635 559.3 447.409 558.898 448.297 558.622C449.197 558.346 450.175 558.208 451.231 558.208C452.023 558.208 452.767 558.292 453.463 558.46C454.159 558.616 454.795 558.85 455.371 559.162H460.681ZM468.109 558.532V577H463.645V558.532H468.109ZM468.721 553.15C468.721 553.534 468.643 553.894 468.487 554.23C468.331 554.566 468.121 554.86 467.857 555.112C467.605 555.364 467.305 555.568 466.957 555.724C466.609 555.868 466.237 555.94 465.841 555.94C465.457 555.94 465.091 555.868 464.743 555.724C464.407 555.568 464.113 555.364 463.861 555.112C463.609 554.86 463.405 554.566 463.249 554.23C463.105 553.894 463.033 553.534 463.033 553.15C463.033 552.754 463.105 552.382 463.249 552.034C463.405 551.686 463.609 551.386 463.861 551.134C464.113 550.882 464.407 550.684 464.743 550.54C465.091 550.384 465.457 550.306 465.841 550.306C466.237 550.306 466.609 550.384 466.957 550.54C467.305 550.684 467.605 550.882 467.857 551.134C468.121 551.386 468.331 551.686 468.487 552.034C468.643 552.382 468.721 552.754 468.721 553.15ZM476.799 560.8C477.171 560.428 477.561 560.086 477.969 559.774C478.389 559.45 478.827 559.18 479.283 558.964C479.751 558.736 480.249 558.562 480.777 558.442C481.305 558.31 481.881 558.244 482.505 558.244C483.513 558.244 484.407 558.418 485.187 558.766C485.967 559.102 486.615 559.582 487.131 560.206C487.659 560.818 488.055 561.556 488.319 562.42C488.595 563.272 488.733 564.214 488.733 565.246V577H484.287V565.246C484.287 564.118 484.029 563.248 483.513 562.636C482.997 562.012 482.211 561.7 481.155 561.7C480.387 561.7 479.667 561.874 478.995 562.222C478.323 562.57 477.687 563.044 477.087 563.644V577H472.641V558.532H475.359C475.935 558.532 476.313 558.802 476.493 559.342L476.799 560.8Z" fill="#F2F2F2"/>
<path d="M211.512 205.184C211.512 205.728 209.896 206 206.664 206C203.432 206 201.816 205.728 201.816 205.184V194.144H195.096V205.184C195.096 205.728 193.48 206 190.248 206C187.016 206 185.4 205.728 185.4 205.184V173.36C185.4 172.688 187.016 172.352 190.248 172.352C193.48 172.352 195.096 172.688 195.096 173.36V184.64H201.816V173.456C201.816 173.008 202.616 172.688 204.216 172.496C205.048 172.432 205.864 172.4 206.664 172.4L209.112 172.496C210.712 172.688 211.512 173.008 211.512 173.456V205.184ZM238.851 206.096C236.067 206.096 234.563 205.648 234.339 204.752L232.755 198.56H225.123L223.731 204.512C223.539 205.504 222.003 206 219.123 206C217.587 206 216.451 205.92 215.715 205.76C214.979 205.568 214.611 205.424 214.611 205.328L223.107 172.832C223.107 172.576 225.299 172.448 229.683 172.448C234.067 172.448 236.259 172.576 236.259 172.832L244.563 205.376C244.563 205.6 243.827 205.776 242.355 205.904C240.883 206.032 239.715 206.096 238.851 206.096ZM226.323 192.464H231.363L229.203 182.528H228.915L226.323 192.464ZM243.95 173.024C243.95 172.864 244.638 172.72 246.014 172.592C247.422 172.432 248.574 172.352 249.47 172.352C253.022 172.352 254.878 172.816 255.038 173.744L259.166 194.864L263.054 173.744C263.246 172.816 265.23 172.352 269.006 172.352C269.934 172.352 271.102 172.416 272.51 172.544C273.918 172.672 274.622 172.816 274.622 172.976L266.126 204.752C265.998 205.264 265.054 205.6 263.294 205.76C260.574 206.048 258.094 206.112 255.854 205.952C253.646 205.76 252.478 205.44 252.35 204.992L243.95 173.024ZM293.156 185.744C293.764 185.744 294.068 186.864 294.068 189.104C294.068 189.776 293.988 190.576 293.828 191.504C293.7 192.4 293.444 192.848 293.06 192.848H286.964V197.648H295.796C296.34 197.648 296.708 198.352 296.9 199.76C296.996 200.368 297.044 201.024 297.044 201.728C297.044 202.4 296.948 203.28 296.756 204.368C296.564 205.456 296.244 206 295.796 206H279.38C278.164 206 277.556 205.504 277.556 204.512V173.648C277.556 172.816 277.924 172.4 278.66 172.4H295.844C296.516 172.4 296.852 173.824 296.852 176.672C296.852 179.488 296.516 180.896 295.844 180.896H286.964V185.744H293.156ZM310.396 205.328C310.396 205.84 308.876 206.096 305.836 206.096C302.764 206.096 301.228 205.856 301.228 205.376V174.08C301.228 172.96 301.82 172.4 303.004 172.4H312.172C320.588 172.4 324.796 175.68 324.796 182.24C324.796 184.224 324.412 186.032 323.644 187.664C322.876 189.264 321.788 190.544 320.38 191.504L326.428 201.584C326.172 202.352 325.34 203.232 323.932 204.224C322.012 205.6 320.428 206.288 319.18 206.288C317.932 206.288 317.004 205.84 316.396 204.944L311.884 194.432H310.396V205.328ZM310.396 180.896V188.096H310.636C313.676 188.096 315.196 186.832 315.196 184.304C315.196 183.152 314.892 182.304 314.284 181.76C313.708 181.184 312.748 180.896 311.404 180.896H310.396ZM347.493 172.4C348.037 172.4 348.309 173.824 348.309 176.672C348.309 179.488 348.037 180.896 347.493 180.896H338.709V186.368H344.565C345.109 186.368 345.381 187.616 345.381 190.112C345.381 192.576 345.125 193.808 344.613 193.808H338.709V205.376C338.709 205.824 338.101 206.112 336.885 206.24C335.701 206.4 334.709 206.48 333.909 206.48L331.653 206.384C330.085 206.192 329.301 205.872 329.301 205.424V173.648C329.301 173.136 329.397 172.8 329.589 172.64C329.813 172.48 330.133 172.4 330.549 172.4H347.493ZM361.349 205.328C361.349 205.84 359.829 206.096 356.789 206.096C353.717 206.096 352.181 205.856 352.181 205.376V174.08C352.181 172.96 352.773 172.4 353.957 172.4H363.125C371.541 172.4 375.749 175.68 375.749 182.24C375.749 184.224 375.365 186.032 374.597 187.664C373.829 189.264 372.741 190.544 371.333 191.504L377.381 201.584C377.125 202.352 376.293 203.232 374.885 204.224C372.965 205.6 371.381 206.288 370.133 206.288C368.885 206.288 367.957 205.84 367.349 204.944L362.837 194.432H361.349V205.328ZM361.349 180.896V188.096H361.589C364.629 188.096 366.149 186.832 366.149 184.304C366.149 183.152 365.845 182.304 365.237 181.76C364.661 181.184 363.701 180.896 362.357 180.896H361.349ZM383.662 197.744V180.656H380.254C379.71 180.656 379.326 179.968 379.102 178.592C379.006 177.92 378.958 177.232 378.958 176.528C378.958 175.824 379.006 175.136 379.102 174.464C379.326 173.088 379.71 172.4 380.254 172.4H396.382C396.926 172.4 397.294 173.088 397.486 174.464C397.614 175.136 397.678 175.824 397.678 176.528C397.678 177.232 397.614 177.92 397.486 178.592C397.294 179.968 396.926 180.656 396.382 180.656H393.166V197.744H396.526C397.07 197.744 397.454 198.432 397.678 199.808C397.806 200.48 397.87 201.168 397.87 201.872C397.87 202.576 397.806 203.264 397.678 203.936C397.454 205.312 397.07 206 396.526 206H380.35C379.806 206 379.438 205.312 379.246 203.936C379.118 203.264 379.054 202.576 379.054 201.872C379.054 201.168 379.118 200.48 379.246 199.808C379.438 198.432 379.806 197.744 380.35 197.744H383.662ZM416.672 185.744C417.28 185.744 417.584 186.864 417.584 189.104C417.584 189.776 417.504 190.576 417.344 191.504C417.216 192.4 416.96 192.848 416.576 192.848H410.48V197.648H419.312C419.856 197.648 420.224 198.352 420.416 199.76C420.512 200.368 420.56 201.024 420.56 201.728C420.56 202.4 420.464 203.28 420.272 204.368C420.08 205.456 419.76 206 419.312 206H402.896C401.68 206 401.072 205.504 401.072 204.512V173.648C401.072 172.816 401.44 172.4 402.176 172.4H419.36C420.032 172.4 420.368 173.824 420.368 176.672C420.368 179.488 420.032 180.896 419.36 180.896H410.48V185.744H416.672ZM451.048 204.944C451.048 205.616 449.544 205.952 446.536 205.952C443.528 205.952 441.896 205.712 441.64 205.232L433.624 190.256V205.184C433.624 205.76 432.136 206.048 429.16 206.048C426.216 206.048 424.744 205.76 424.744 205.184V173.072C424.744 172.592 426.008 172.352 428.536 172.352C429.528 172.352 430.68 172.448 431.992 172.64C433.336 172.8 434.152 173.12 434.44 173.6L442.12 188.384V173.312C442.12 172.704 443.608 172.4 446.584 172.4C449.56 172.4 451.048 172.704 451.048 173.312V204.944ZM455.869 203.792V174.992C455.869 174.192 456.061 173.568 456.445 173.12C456.861 172.64 457.389 172.4 458.029 172.4H466.045C471.133 172.4 474.989 173.68 477.613 176.24C480.269 178.8 481.597 182.832 481.597 188.336C481.597 200.112 476.573 206 466.525 206H458.317C456.685 206 455.869 205.264 455.869 203.792ZM465.085 181.52V195.872C465.085 196.544 465.133 196.976 465.229 197.168C465.325 197.328 465.613 197.408 466.093 197.408C467.853 197.408 469.181 196.752 470.077 195.44C471.005 194.128 471.469 191.952 471.469 188.912C471.469 185.84 470.989 183.84 470.029 182.912C469.101 181.984 467.613 181.52 465.565 181.52H465.085ZM486.695 194.288C487.303 194.768 488.343 195.424 489.815 196.256C491.319 197.088 492.743 197.504 494.087 197.504C495.463 197.504 496.151 196.976 496.151 195.92C496.151 195.44 495.959 195.024 495.575 194.672C495.191 194.288 494.487 193.856 493.463 193.376C492.439 192.896 491.671 192.528 491.159 192.272C490.647 191.984 489.959 191.536 489.095 190.928C488.263 190.288 487.623 189.632 487.175 188.96C485.895 187.136 485.255 184.816 485.255 182C485.255 179.184 486.295 176.816 488.375 174.896C490.487 172.944 493.239 171.968 496.631 171.968C498.935 171.968 501.063 172.224 503.015 172.736C504.967 173.216 505.975 173.856 506.039 174.656C506.039 174.752 506.039 174.848 506.039 174.944C506.039 176.064 505.687 177.488 504.983 179.216C504.279 180.912 503.783 181.856 503.495 182.048C501.447 180.992 499.607 180.464 497.975 180.464C496.375 180.464 495.575 181.04 495.575 182.192C495.575 182.896 496.167 183.52 497.351 184.064C497.607 184.192 497.975 184.368 498.455 184.592C498.935 184.816 499.479 185.088 500.087 185.408C500.727 185.696 501.399 186.08 502.103 186.56C502.839 187.008 503.623 187.616 504.455 188.384C506.151 189.984 506.999 192.096 506.999 194.72C506.999 198.144 506.055 200.944 504.167 203.12C502.279 205.296 499.367 206.416 495.431 206.48C493.511 206.48 491.767 206.32 490.199 206C488.663 205.68 487.319 205.056 486.167 204.128C485.015 203.2 484.439 202.08 484.439 200.768C484.439 199.456 484.679 198.16 485.159 196.88C485.639 195.568 486.151 194.704 486.695 194.288Z" fill="white"/>
<rect x="144" y="309" width="392" height="55" rx="25" fill="#C4C4C4"/>
<rect x="144" y="456" width="392" height="55" rx="25" fill="#C4C4C4"/>
</svg>
